<svg width="184" height="63" viewBox="0 0 184 63" fill="none" xmlns="http://www.w3.org/2000/svg">
<g clip-path="url(#clip0_1_653)">
<path d="M36.6622 16.6097H38.841C39.3611 16.6096 39.8726 16.7422 40.3272 16.9951C40.7818 17.2481 41.1645 17.6129 41.439 18.0551C41.7136 18.4972 41.8709 19.0021 41.8962 19.5221C41.9215 20.0421 41.8139 20.5599 41.5835 21.0267L28.0346 48.4901C27.9993 48.5616 27.9447 48.6217 27.877 48.6638C27.8093 48.7059 27.7312 48.7282 27.6516 48.7283H24.8703C24.1639 48.7283 23.4815 48.4716 22.9498 48.006C22.4182 47.5404 22.0735 46.8974 21.9797 46.1965L19.8999 30.7265C19.8924 30.6698 19.8667 30.6171 19.8268 30.5762C19.787 30.5352 19.7349 30.5082 19.6785 30.4991C19.6221 30.4901 19.5642 30.4995 19.5136 30.526C19.4629 30.5524 19.4221 30.5945 19.3972 30.6459L10.7206 48.4859C10.6856 48.558 10.6311 48.6187 10.5632 48.6612C10.4954 48.7036 10.417 48.7261 10.337 48.7261H7.53824C6.83584 48.726 6.15707 48.4722 5.62668 48.0113C5.09629 47.5504 4.74991 46.9133 4.6512 46.2172L0.503099 16.9506C0.497039 16.9079 0.500206 16.8645 0.512394 16.8231C0.524581 16.7817 0.545513 16.7434 0.573751 16.7108C0.601989 16.6782 0.636885 16.6522 0.676081 16.6343C0.715278 16.6163 0.757851 16.607 0.800939 16.607H4.30691C5.25718 16.6069 6.17503 16.953 6.8892 17.5804C7.60336 18.2079 8.06505 19.0739 8.18813 20.0171L10.2013 35.4505C10.2077 35.5006 10.2301 35.5473 10.2652 35.5837C10.3003 35.62 10.3462 35.644 10.396 35.6522C10.4459 35.6603 10.497 35.652 10.5418 35.6287C10.5866 35.6054 10.6227 35.5682 10.6447 35.5227L19.7131 16.8473C19.7481 16.7752 19.8027 16.7144 19.8706 16.6718C19.9385 16.6293 20.017 16.6066 20.0971 16.6065H22.8846C23.3061 16.6065 23.7133 16.7603 24.0299 17.0389C24.3465 17.3175 24.551 17.702 24.605 18.1204L26.8463 35.4488C26.8527 35.499 26.8752 35.5457 26.9103 35.582C26.9453 35.6184 26.9912 35.6424 27.0411 35.6505C27.0909 35.6586 27.142 35.6505 27.1868 35.6272C27.2316 35.6039 27.2677 35.5667 27.2897 35.5212L36.3917 16.7765C36.4165 16.7257 36.455 16.6829 36.5029 16.6529C36.5508 16.623 36.6062 16.607 36.6627 16.607" fill="#FFCC00"/>
<path d="M44.7617 48.7282H41.7291C41.3034 48.7282 40.8828 48.6349 40.4969 48.4548C40.1111 48.2747 39.7693 48.0123 39.4956 47.6858C39.2219 47.3594 39.023 46.9769 38.9128 46.5653C38.8025 46.1537 38.7837 45.723 38.8575 45.3033L42.3217 25.6281C42.339 25.529 42.3906 25.4392 42.4676 25.3746C42.5446 25.3099 42.6419 25.2745 42.7424 25.2747H46.9529C47.2343 25.2747 47.5123 25.3364 47.7674 25.4554C48.0224 25.5745 48.2483 25.7481 48.4291 25.9639C48.61 26.1797 48.7414 26.4325 48.8142 26.7046C48.887 26.9767 48.8993 27.2614 48.8504 27.5387L45.1824 48.3759C45.1648 48.4748 45.113 48.5643 45.0361 48.6288C44.9592 48.6934 44.8621 48.7287 44.7617 48.7288" fill="#FFCC00"/>
<path d="M65.56 25.0251C66.7954 25 68.0215 25.2422 69.1548 25.735C70.1427 26.1731 71.0281 26.8133 71.7538 27.6147C72.4523 28.3985 72.9816 29.3182 73.3085 30.3163C73.6513 31.3564 73.8235 32.4451 73.8185 33.5403C73.8183 34.1905 73.7685 34.8398 73.6693 35.4825L71.3935 48.3754C71.3759 48.4743 71.3241 48.5638 71.2472 48.6283C71.1703 48.6928 71.0731 48.7282 70.9728 48.7282H67.9169C67.4911 48.7283 67.0703 48.635 66.6843 48.4549C66.2984 48.2748 65.9565 48.0123 65.6828 47.6857C65.4091 47.3591 65.2102 46.9765 65.1 46.5647C64.9899 46.1529 64.9713 45.722 65.0454 45.3023L66.58 36.6031C66.845 35.0097 66.675 33.7441 66.07 32.8062C65.465 31.8682 64.4155 31.3992 62.9213 31.3992C61.777 31.3932 60.6688 31.7996 59.7993 32.5442C58.825 33.4061 58.1936 34.5907 58.0211 35.8808L55.8438 48.3738C55.8265 48.4729 55.7749 48.5628 55.6979 48.6276C55.6209 48.6923 55.5236 48.7278 55.4231 48.7277H52.3662C51.9405 48.7277 51.5199 48.6343 51.134 48.4543C50.7482 48.2742 50.4064 48.0117 50.1327 47.6853C49.859 47.3589 49.6601 46.9764 49.5499 46.5648C49.4396 46.1532 49.4208 45.7225 49.4946 45.3028L52.9588 25.6271C52.9763 25.5281 53.028 25.4384 53.105 25.3739C53.1819 25.3094 53.2791 25.2741 53.3795 25.2741H55.7354C56.4237 25.2741 57.0935 25.4972 57.6445 25.9101C58.1955 26.323 58.598 26.9035 58.7918 27.5646C59.4354 27.0856 60.1177 26.6609 60.8317 26.2951C61.5258 25.9637 62.2403 25.6769 62.9708 25.4364C63.8048 25.1581 64.6788 25.0186 65.5579 25.0231" fill="#FFCC00"/>
<path d="M101.155 25.2742H99.6017C98.682 25.2739 97.777 25.5045 96.9695 25.945C96.1621 26.3855 95.4779 27.0219 94.9797 27.7956C94.9747 27.8038 94.9678 27.8107 94.9597 27.8159C94.9515 27.8211 94.9423 27.8245 94.9328 27.8256C94.9232 27.8268 94.9135 27.8257 94.9043 27.8226C94.8952 27.8194 94.8869 27.8143 94.8801 27.8074C94.3367 27.2799 93.7298 26.8219 93.0734 26.4444C92.3776 26.0256 91.6344 25.6914 90.8595 25.4488C89.9096 25.1535 88.919 25.0106 87.9244 25.0252C86.416 25.0284 84.9248 25.3465 83.5461 25.9593C82.1374 26.57 80.8584 27.4448 79.778 28.5364C78.6634 29.6609 77.773 30.9877 77.1542 32.4456C76.3615 34.4024 76.0019 36.5078 76.1001 38.6171C76.0894 39.9877 76.3383 41.348 76.8336 42.6259C77.2945 43.827 77.9973 44.9204 78.8984 45.8381C79.7953 46.7418 80.86 47.4614 82.0326 47.9564C83.2642 48.4766 84.5891 48.739 85.9257 48.7278C86.6719 48.7399 87.4164 48.6518 88.1392 48.4658C88.6913 48.319 89.2317 48.1318 89.7564 47.9057C90.0978 47.7362 90.4267 47.5427 90.7407 47.3266C90.7493 47.3189 90.7602 47.3143 90.7716 47.3135C90.7831 47.3127 90.7945 47.3157 90.804 47.3221C90.8135 47.3285 90.8207 47.3379 90.8243 47.3488C90.8279 47.3597 90.8277 47.3715 90.8239 47.3824C89.3269 54.6674 84.1444 58.3207 78.9076 60.1322C78.626 60.2288 78.3896 60.4255 78.2432 60.685C78.0969 60.9446 78.0508 61.2488 78.1137 61.5401C78.1766 61.8314 78.3441 62.0894 78.5845 62.2653C78.8248 62.4412 79.1213 62.5227 79.4177 62.4944C87.1899 61.7111 95.8681 58.3611 97.7351 47.7095C99.0112 40.4245 101.123 28.3685 101.578 25.7769C101.588 25.7154 101.586 25.6524 101.569 25.5922C101.553 25.532 101.524 25.4761 101.484 25.4283C101.444 25.3806 101.394 25.3422 101.337 25.3159C101.281 25.2897 101.219 25.2761 101.157 25.2762L101.155 25.2742ZM89.5571 41.9429C88.9219 42.2185 88.2364 42.3593 87.544 42.3562C86.9387 42.388 86.3333 42.2962 85.7646 42.0865C85.1959 41.8768 84.6758 41.5535 84.2358 41.1363C83.4258 40.2508 82.9731 39.0959 82.9654 37.8953C82.9081 36.8026 83.0856 35.7103 83.4857 34.692C83.7556 34.0506 84.1344 33.4608 84.6053 32.9488C85.0708 32.4556 85.6344 32.0656 86.2597 31.8038C86.8973 31.537 87.5819 31.4015 88.2728 31.4054C88.8781 31.3738 89.4836 31.4657 90.0523 31.6755C90.621 31.8853 91.1411 32.2086 91.5811 32.6258C91.9823 33.026 92.2974 33.5041 92.507 34.0308C92.7166 34.5574 92.8163 35.1215 92.7998 35.6881C92.7811 36.4493 92.7146 37.2086 92.6006 37.9614L92.4592 38.7127C92.4297 38.8426 92.3908 38.9702 92.343 39.0945C92.0847 39.7306 91.7044 40.3099 91.2234 40.7995C90.7474 41.2857 90.1814 41.6744 89.5571 41.9444" fill="#FFCC00"/>
<path d="M61.591 7.2513C61.591 7.2513 65.3117 7.95091 66.8758 14.2134C67.6206 17.1925 68.1435 19.38 68.8585 22.3101C68.8751 22.3692 68.8698 22.4325 68.8435 22.488C68.8172 22.5436 68.7717 22.5876 68.7154 22.6122C68.6591 22.6367 68.5958 22.64 68.5372 22.6214C68.4787 22.6028 68.4289 22.5637 68.397 22.5111C67.425 20.7157 64.7837 15.8858 60.8772 13.3397C58.751 11.9534 55.9217 10.5047 53.7682 13.629C52.1097 16.0336 50.8946 19.3124 50.2065 21.4307C50.1847 21.4984 50.1383 21.5554 50.0766 21.5904C50.0149 21.6255 49.9422 21.6361 49.873 21.6201C49.8039 21.6041 49.7432 21.5627 49.7031 21.5042C49.6629 21.4456 49.6462 21.3739 49.6562 21.3036C50.0005 18.9171 50.8228 16.3777 49.4947 14.8825C48.2155 13.442 44.4411 13.8884 41.6785 13.8967C41.6232 13.8968 41.5699 13.8761 41.5292 13.8385C41.4886 13.801 41.4636 13.7494 41.4593 13.6942C41.455 13.639 41.4717 13.5843 41.506 13.5409C41.5403 13.4974 41.5898 13.4686 41.6444 13.4601C44.7989 12.9827 49.6918 12.2438 51.3617 11.0943C52.2501 10.4825 55.1712 8.38227 50.2189 5.22285C46.5756 2.89785 41.9314 1.61659 39.796 0.908758C39.7476 0.89154 39.7071 0.857256 39.6821 0.812388C39.6571 0.767519 39.6492 0.715057 39.6599 0.664805C39.6707 0.614552 39.6993 0.569995 39.7405 0.539296C39.7816 0.508597 39.8325 0.493833 39.8837 0.497922C42.0336 0.676172 47.0329 0.99966 48.484 1.10919C51.2332 1.31586 57.4842 1.76745 58.5171 5.03175C60.3795 3.52721 62.6683 3.03941 63.7379 3.53851C63.9154 3.60413 63.7141 4.11055 63.7141 4.11055C63.1669 5.25681 62.4511 6.31447 61.5905 7.24827" fill="#003595"/>
<path d="M152.333 24.2464C153.498 24.2367 154.657 24.4257 155.758 24.8055C156.772 25.1524 157.711 25.6875 158.526 26.3829C159.327 27.0833 159.963 27.9532 160.388 28.9296C160.853 29.9987 161.086 31.1548 161.071 32.321C161.069 32.9532 161.019 33.5843 160.921 34.2089L158.573 47.5627C158.556 47.6568 158.507 47.7421 158.434 47.8036C158.361 47.8651 158.269 47.8988 158.173 47.8989H156.345C155.726 47.8991 155.123 47.6969 154.63 47.323C154.136 46.9491 153.777 46.424 153.609 45.8276L153.548 45.6133C153.022 46.1036 152.438 46.5289 151.811 46.8801C151.17 47.2386 150.495 47.5341 149.797 47.7626C149.005 48.024 148.175 48.154 147.34 48.1474C146.241 48.1668 145.146 48.003 144.101 47.6628C143.237 47.3804 142.436 46.9332 141.743 46.3459C141.126 45.819 140.634 45.1612 140.303 44.4203C139.981 43.6931 139.816 42.9059 139.819 42.1103C139.774 40.7021 140.183 39.3168 140.986 38.1593C141.819 37.0368 142.919 36.1401 144.186 35.5507C145.716 34.8358 147.343 34.3502 149.014 34.1096C151.03 33.8 153.066 33.6504 155.105 33.6622C155.204 33.157 155.193 32.6366 155.076 32.1356C154.958 31.6345 154.736 31.1641 154.423 30.7555C154.077 30.354 153.642 30.0392 153.153 29.8364C152.664 29.6336 152.134 29.5485 151.606 29.5878C151.038 29.5683 150.475 29.7059 149.98 29.9856C149.579 30.22 149.215 30.5129 148.9 30.8546C148.63 31.1648 148.401 31.5085 148.219 31.8771C148.185 31.9489 148.131 32.0092 148.063 32.0507C147.996 32.0921 147.917 32.113 147.838 32.1107L142.693 31.8963C142.63 31.894 142.568 31.8768 142.512 31.8462C142.457 31.8156 142.409 31.7723 142.374 31.7199C142.338 31.6675 142.315 31.6075 142.307 31.5446C142.299 31.4817 142.305 31.4178 142.326 31.3579C142.646 30.4999 143.07 29.6845 143.588 28.9296C144.213 28.0149 144.97 27.1983 145.835 26.5068C146.717 25.8035 147.706 25.2454 148.764 24.8535C149.905 24.4379 151.112 24.2318 152.326 24.2449L152.333 24.2464ZM148.354 43.5745C149.782 43.608 151.172 43.1175 152.263 42.1955C153.325 41.3151 154.041 40.0876 154.286 38.7297L154.51 37.7108C153.075 37.6943 151.64 37.7732 150.215 37.9469C149.285 38.0482 148.373 38.2824 147.509 38.6423C146.938 38.8737 146.449 39.2722 146.107 39.7858C145.83 40.2555 145.688 40.7928 145.697 41.3383C145.701 41.6334 145.767 41.9243 145.891 42.192C146.015 42.4597 146.194 42.6981 146.417 42.8915C146.947 43.3656 147.643 43.611 148.353 43.5745" fill="#003595"/>
<path d="M131.777 34.7307C132.076 33.5411 131.903 32.2816 131.294 31.2173C130.989 30.7572 130.567 30.3868 130.072 30.1444C129.577 29.902 129.026 29.7963 128.476 29.8384C127.5 29.8503 126.563 30.2217 125.843 30.8815C125.032 31.5773 124.486 32.7202 124.205 34.3101L121.882 47.5647C121.865 47.6589 121.816 47.7442 121.743 47.8057C121.67 47.8671 121.577 47.9006 121.482 47.9005H119.361C118.946 47.9005 118.535 47.8093 118.158 47.6332C117.782 47.4571 117.448 47.2005 117.182 46.8814C116.915 46.5623 116.721 46.1885 116.615 45.7864C116.508 45.3843 116.491 44.9636 116.564 44.554L118.323 34.7323C118.623 33.5414 118.445 32.28 117.827 31.219C117.519 30.7591 117.095 30.3892 116.598 30.1469C116.1 29.9047 115.548 29.7987 114.996 29.8399C114.021 29.8518 113.083 30.2232 112.364 30.8831C111.553 31.5788 111.007 32.7217 110.726 34.3116L108.403 47.5662C108.386 47.6604 108.337 47.7457 108.264 47.8072C108.191 47.8686 108.098 47.9023 108.003 47.9022H105.897C105.482 47.9021 105.072 47.811 104.696 47.6355C104.32 47.46 103.987 47.2041 103.72 46.886C103.454 46.5678 103.26 46.1952 103.152 45.794C103.045 45.3928 103.026 44.9729 103.098 44.5639L106.572 24.8339C106.589 24.7398 106.638 24.6547 106.711 24.5932C106.784 24.5318 106.877 24.4981 106.972 24.4981H108.755C109.384 24.4982 109.995 24.7069 110.492 25.0916C110.99 25.4763 111.346 26.0153 111.505 26.6242L111.546 26.7834C112.062 26.3012 112.628 25.8762 113.235 25.516C113.837 25.192 114.459 24.9058 115.096 24.6588C115.833 24.378 116.616 24.2388 117.405 24.2486C118.345 24.2195 119.28 24.3933 120.148 24.7585C120.792 25.0442 121.404 25.3983 121.972 25.8147C122.52 26.2578 122.982 26.7966 123.337 27.4049C123.905 26.8065 124.538 26.2732 125.224 25.8147C125.925 25.3901 126.664 25.0323 127.433 24.7461C128.37 24.401 129.363 24.2324 130.362 24.2486C132.695 24.2486 134.524 24.9278 135.847 26.2863C137.171 27.6448 137.833 29.5413 137.833 31.9758C137.833 32.3891 137.816 32.8076 137.782 33.2309C137.747 33.6542 137.698 34.0971 137.633 34.5596L135.359 47.5657C135.342 47.6598 135.293 47.7451 135.22 47.8065C135.146 47.868 135.054 47.9015 134.959 47.9015H132.832C132.417 47.9016 132.006 47.8106 131.63 47.6349C131.254 47.4591 130.92 47.203 130.654 46.8845C130.387 46.566 130.193 46.1929 130.086 45.7913C129.979 45.3898 129.961 44.9696 130.033 44.5603L131.777 34.7307Z" fill="#003595"/>
<path d="M168.48 47.5642C168.464 47.6582 168.415 47.7433 168.342 47.8048C168.269 47.8662 168.176 47.8999 168.081 47.9H165.976C165.561 47.8999 165.152 47.809 164.776 47.6335C164.4 47.4579 164.067 47.2021 163.8 46.8841C163.533 46.566 163.339 46.1933 163.232 45.7922C163.124 45.3911 163.106 44.9713 163.178 44.5623L168.167 16.1849C168.183 16.0908 168.232 16.0057 168.305 15.9442C168.378 15.8828 168.471 15.8491 168.566 15.8491H170.676C171.091 15.8492 171.501 15.9401 171.876 16.1154C172.252 16.2907 172.585 16.546 172.852 16.8638C173.119 17.1815 173.313 17.5539 173.42 17.9546C173.528 18.3554 173.547 18.7749 173.476 19.1837L168.48 47.5642Z" fill="#003595"/>
<path d="M178.464 47.5642C178.447 47.6582 178.398 47.7433 178.325 47.8048C178.252 47.8662 178.16 47.8999 178.065 47.9H175.957C175.542 47.8999 175.132 47.809 174.756 47.6335C174.38 47.4579 174.047 47.2021 173.78 46.8841C173.514 46.566 173.32 46.1933 173.212 45.7922C173.105 45.3911 173.086 44.9713 173.158 44.5623L178.147 16.1849C178.164 16.0908 178.213 16.0056 178.286 15.9442C178.359 15.8828 178.452 15.8491 178.547 15.8491H180.657C181.072 15.8492 181.482 15.9401 181.857 16.1154C182.233 16.2907 182.566 16.546 182.833 16.8638C183.1 17.1815 183.294 17.5539 183.401 17.9546C183.509 18.3554 183.528 18.7749 183.457 19.1837L178.464 47.5642Z" fill="#003595"/>
</g>
<defs>
<clipPath id="clip0_1_653">
<rect width="183" height="62" fill="white" transform="translate(0.5 0.5)"/>
</clipPath>
</defs>
</svg>
